# xmcd
#
# Track frame offsets:
#	217
#	15823
#	29678
#	42428
#	58001
#	73921
#	93973
#	105015
#	121796
#	139125
#	164341
#	181937
#	201427
#	219659
#	237331
#	252238
#	267682
#	284032
#
# Disc length: 4007 seconds
#
# Revision: 1
# Processed by: cddbd v1.5.2PL0 Copyright (c) Steve Scherf et al.
# Submitted via: audiograbber 1.83.01
#
DISCID=0d0fa512
DTITLE=Toby Keith - 35 Biggest Hits
DYEAR=2008
DGENRE=Country
TTITLE0=Should've Been A Cowboy
TTITLE1=He Ain't Worth Missing
TTITLE2=A Little Less Talk And A Lot More Action
TTITLE3=Wish I Didn't Know Now
TTITLE4=Who's That Man
TTITLE5=Upstairs Downtown
TTITLE6=You Ain't Much Fun
TTITLE7=Big Ol' Truck
TTITLE8=Does That Blue Moon Ever Shine On You
TTITLE9=A Woman's Touch
TTITLE10=Me Too
TTITLE11=We Where In Love
TTITLE12=I'm So Happy I Can't Stop Crying (with Sting)
TTITLE13=Dream Walkin'
TTITLE14=Getcha Some
TTITLE15=How Do You Like Me Know?!
TTITLE16=Country Comes To Town
TTITLE17=You Shouldn't Kiss Me Like This
EXTD=
EXTT0=
EXTT1=
EXTT2=
EXTT3=
EXTT4=
EXTT5=
EXTT6=
EXTT7=
EXTT8=
EXTT9=
EXTT10=
EXTT11=
EXTT12=
EXTT13=
EXTT14=
EXTT15=
EXTT16=
EXTT17=
PLAYORDER=
